HIERARCHY
ROOT Hips
{
	OFFSET 0.00000 0.00000 0.00000
	CHANNELS 6 Xposition Yposition Zposition Zrotation Yrotation Xrotation 
	JOINT LHipJoint
	{
		OFFSET 0 0 0
		CHANNELS 3 Zrotation Yrotation Xrotation
		JOINT LeftHip
		{
			OFFSET 1.36337 -1.57426 1.11036
			CHANNELS 3 Zrotation Yrotation Xrotation
			JOINT LeftKnee
			{
				OFFSET 2.38468 -6.55187 0.00000
				CHANNELS 3 Zrotation Yrotation Xrotation
				JOINT LeftAnkle
				{
					OFFSET 2.37166 -6.51609 0.00000
					CHANNELS 3 Zrotation Yrotation Xrotation
					JOINT LeftToe
					{
						OFFSET 0.29078 -0.79891 2.01393
						CHANNELS 3 Zrotation Yrotation Xrotation
						End Site
						{
							OFFSET 0.00000 -0.00000 1.07924
						}
					}
				}
			}
		}
	}
	JOINT RHipJoint
	{
		OFFSET 0 0 0
		CHANNELS 3 Zrotation Yrotation Xrotation
		JOINT RightHip
		{
			OFFSET -1.36349 -1.57426 1.11036
			CHANNELS 3 Zrotation Yrotation Xrotation
			JOINT RightKnee
			{
				OFFSET -2.29562 -6.30717 0.00000
				CHANNELS 3 Zrotation Yrotation Xrotation
				JOINT RightAnkle
				{
					OFFSET -2.40985 -6.62100 0.00000
					CHANNELS 3 Zrotation Yrotation Xrotation
					JOINT RightToe
					{
						OFFSET -0.23197 -0.63733 1.92232
						CHANNELS 3 Zrotation Yrotation Xrotation
						End Site
						{
							OFFSET -0.00000 -0.00000 1.01562
						}
					}
				}
			}
		}
	}
	JOINT lowerback
	{
		OFFSET 0 0 0
		CHANNELS 3 Zrotation Yrotation Xrotation
		JOINT Chest
		{
			OFFSET -0.08565 2.03602 -0.24562
			CHANNELS 3 Zrotation Yrotation Xrotation
			JOINT Chest2
			{
				OFFSET -0.00036 2.05693 0.00216
				CHANNELS 3 Zrotation Yrotation Xrotation
				JOINT lowerneck
				{
					OFFSET 0 0 0
					CHANNELS 3 Zrotation Yrotation Xrotation
					JOINT Neck
					{
						OFFSET -0.03664 1.69515 0.31789
						CHANNELS 3 Zrotation Yrotation Xrotation
						JOINT Head
						{
							OFFSET 0.00932 1.70181 -0.46013
							CHANNELS 3 Zrotation Yrotation Xrotation
							End Site
							{
								OFFSET 0.01243 1.77620 -0.19377
							}
						}
					}
				}
				JOINT LeftCollar
				{
					OFFSET 0 0 0
					CHANNELS 3 Zrotation Yrotation Xrotation
					JOINT LeftShoulder
					{
						OFFSET 3.74344 0.81315 -0.36647
CHANNELS 3 Zrotation Xrotation Yrotation
						JOINT LeftElbow
						{
OFFSET 0 -4.971850 -0.000000
CHANNELS 3 Zrotation Xrotation Yrotation
							JOINT LeftWrist
							{
OFFSET 0 -3.358110 0.000000
CHANNELS 3 Zrotation Xrotation Yrotation
								JOINT lhand
								{
									OFFSET 0 0 0
CHANNELS 3 Zrotation Xrotation Yrotation
									JOINT LFingers
									{
OFFSET 0 -0.622780 0.000000
CHANNELS 3 Zrotation Xrotation Yrotation
										End Site
										{
OFFSET 0 -0.502100 0.000000
										}
									}
								}
								JOINT LThumb
								{
OFFSET 0 0.000000 0.000000
CHANNELS 3 Zrotation Xrotation Yrotation
									End Site
									{
OFFSET 0 -0.509760 0.509760
									}
								}
							}
						}
					}
				}
				JOINT RightCollar
				{
					OFFSET 0 0 0
					CHANNELS 3 Zrotation Yrotation Xrotation
					JOINT RightShoulder
					{
						OFFSET -3.75385 0.50666 -0.06525
CHANNELS 3 Zrotation Xrotation Yrotation
						JOINT RightElbow
						{
OFFSET 0 -4.964930 -0.000000
CHANNELS 3 Zrotation Xrotation Yrotation
							JOINT RightWrist
							{
OFFSET 0 -3.349290 0.000000
CHANNELS 3 Zrotation Xrotation Yrotation
								JOINT rhand
								{
									OFFSET 0 0 0
CHANNELS 3 Zrotation Xrotation Yrotation
									JOINT RFingers
									{
OFFSET 0 -0.638040 0.000000
CHANNELS 3 Zrotation Xrotation Yrotation
										End Site
										{
OFFSET 0 -0.514410 0.000000
										}
									}
								}
								JOINT RThumb
								{
OFFSET 0 0.000000 0.000000
CHANNELS 3 Zrotation Xrotation Yrotation
									End Site
									{
OFFSET 0 -0.522260 0.522260
									}
								}
							}
						}
					}
				}
			}
		}
	}
}
MOTION
Frames: 12
Frame Time: 0.008333333333333333
-28.407600 16.582400 0.087200 166.798000 75.530500 169.858000 0.000000 0.000000 0.000000 -16.872300 -0.453100 -9.187400 2.698200 10.189700 29.593100 1.267700 1.786900 -21.984700 0.024500 -1.010600 -2.778100 0.000000 0.000000 0.000000 11.372700 1.394900 -7.476300 -1.573500 -7.914600 22.454900 -1.054500 5.112700 -18.377500 -0.174300 -2.689400 7.415100 -5.960400 -0.233900 -4.699200 0.811000 0.108400 3.334700 4.211700 -0.209200 6.125300 -2.542700 -1.912600 -19.020000 2.619600 -0.934600 41.369600 1.761400 0.274700 19.047800 -0.000000 0.000000 0.000000 -3.918200 -8.697200 -9.246900 8.044000 -13.624200 0.962500 15.845200 13.323800 11.886400 0.000000 0.000000 0.000000 -7.125000 0.000000 0.000000 -7.910900 17.708200 -5.179600 -0.000000 0.000000 0.000000 -5.382700 -5.974300 17.528800 -10.399500 -17.362000 -1.592100 -10.928900 6.670000 28.930700 0.000000 0.000000 0.000000 7.125000 0.000000 -0.000000 22.126200 57.957200 -7.248600
-28.418001 16.581789 -0.056611 167.961599 76.645221 171.071871 0.000000 0.000000 0.000000 -16.931497 -0.443515 -8.312822 2.468036 9.779429 28.265412 1.212910 3.078600 -22.119239 0.017592 -0.847345 -2.328979 0.000000 0.000000 0.000000 11.403953 2.389818 -6.971704 -1.463142 -7.644504 21.639529 -0.991016 4.810119 -17.820508 -0.194569 -2.840621 7.835296 -5.694674 -0.279063 -4.924098 0.871530 0.026569 3.096340 4.117285 -0.233237 6.008326 -2.358738 -1.741089 -19.078146 2.579580 -0.710402 41.635511 1.767303 0.387602 19.218585 0.000000 0.000000 0.000000 -3.994487 -6.103733 -19.123085 9.430438 -15.842296 1.316441 20.764513 -1.648357 10.905079 0.000000 0.000000 0.000000 -7.125000 0.000000 0.000000 -4.558948 18.290405 -2.734427 0.000000 0.000000 0.000000 -5.987774 -6.208447 15.793561 -10.034192 -16.792973 -1.484799 -13.995271 8.965665 30.659325 0.000000 0.000000 0.000000 7.125000 0.000000 0.000000 20.239844 60.249765 -7.716133
-28.445660 16.564321 -0.216685 169.019601 77.571451 172.021801 0.000000 0.000000 0.000000 -17.398812 -0.151427 -7.473805 2.298530 9.461777 27.250942 1.338132 3.622645 -23.423257 0.001476 -0.160713 -0.441448 0.000000 0.000000 0.000000 11.253045 3.248336 -6.365459 -1.374064 -7.418097 20.960039 -0.939022 4.437307 -17.362946 -0.181883 -2.745245 7.570410 -5.389823 -0.441161 -4.524596 0.763147 -0.246235 2.675502 3.802622 -0.327739 5.360369 -2.064152 -1.443282 -18.750052 2.672630 -0.372240 41.914745 1.841438 0.589385 19.285451 0.000000 0.000000 0.000000 -3.665263 -3.372045 -22.272295 11.099382 -18.440038 1.807485 14.994998 1.656654 1.185887 0.000000 0.000000 0.000000 -7.125000 0.000000 0.000000 -9.111441 28.635885 -3.476156 0.000000 0.000000 0.000000 -6.165003 -5.886345 14.895156 -9.998277 -16.736925 -1.474446 -13.258548 8.662984 31.004301 0.000000 0.000000 0.000000 7.125000 0.000000 0.000000 21.292361 60.396054 -8.212939
-28.485401 16.577454 -0.384807 169.388409 78.173690 172.329893 0.000000 0.000000 0.000000 -18.358034 -0.841781 -6.474714 2.141486 9.154355 26.279584 1.426532 5.393006 -25.079417 0.008914 0.545756 1.499939 0.000000 0.000000 0.000000 10.918017 4.305171 -5.626643 -1.275027 -7.156139 20.178948 -0.894410 3.281126 -17.069927 -0.115291 -2.188239 6.026290 -5.511770 -0.627708 -4.142245 0.654433 -0.514300 2.403450 3.734179 -0.443945 4.884994 -1.903760 -1.269613 -18.547895 2.690706 -0.134204 42.232336 1.884816 0.718215 19.420013 0.000000 0.000000 0.000000 -3.323082 -1.927711 -26.451556 11.569391 -19.155675 1.958729 19.686120 -5.284731 7.902358 0.000000 0.000000 0.000000 -7.125000 0.000000 0.000000 -5.192116 21.605963 -2.924434 0.000000 0.000000 0.000000 -6.189573 -5.459046 14.773439 -10.221548 -17.085287 -1.539510 -13.428345 8.609680 30.544817 0.000000 0.000000 0.000000 7.125000 0.000000 0.000000 20.750544 60.010025 -7.802408
-28.540619 16.592039 -0.561113 167.637836 78.707147 170.484129 0.000000 0.000000 0.000000 -19.680159 -1.716279 -5.262969 1.964156 8.790421 25.142338 1.472383 6.743273 -26.234929 0.078275 1.803784 4.963780 0.000000 0.000000 0.000000 10.070943 5.481334 -5.047631 -1.216446 -6.996143 19.703943 -0.850027 2.034557 -16.853727 -0.091127 -1.945121 5.354018 -6.031770 -0.684620 -4.025680 0.337860 -0.544927 2.480984 3.693799 -0.471337 4.908542 -1.870219 -1.206751 -18.412347 2.913012 -0.150451 42.266785 1.983164 0.746042 19.404044 0.000000 0.000000 0.000000 -2.896484 -1.638944 -29.001699 11.554960 -19.133772 1.954022 22.176040 -4.497031 9.003671 0.000000 0.000000 0.000000 -7.125000 0.000000 0.000000 -3.402834 20.280100 -2.019684 0.000000 0.000000 0.000000 -5.810569 -5.157057 15.052988 -10.776580 -17.944195 -1.707080 -13.617155 7.188871 30.032773 0.000000 0.000000 0.000000 7.125000 0.000000 0.000000 20.158637 59.577340 -7.357752
-28.601407 16.604288 -0.733539 164.550172 79.656572 167.528818 0.000000 0.000000 0.000000 -20.906298 -1.829147 -4.610487 1.794992 8.424849 24.012385 1.490062 7.705019 -26.981207 0.176693 2.681357 7.394442 0.000000 0.000000 0.000000 9.062275 6.640916 -5.185986 -1.229143 -7.031158 19.807794 -0.815719 1.354806 -16.660302 -0.046352 -1.365265 3.754760 -6.830972 -0.619295 -4.195155 0.107100 -0.376077 2.587347 3.915471 -0.417409 5.109153 -1.960322 -1.101008 -18.530349 2.714335 0.165858 42.496133 1.979687 0.822282 19.573577 0.000000 0.000000 0.000000 -2.463900 -1.674174 -31.300661 11.965377 -19.752293 2.090850 21.474428 -6.037410 9.656570 0.000000 0.000000 0.000000 -7.125000 0.000000 0.000000 -3.920862 19.629537 -2.379371 0.000000 0.000000 0.000000 -5.461099 -4.379308 16.661712 -11.868848 -19.606633 -2.058834 -13.223256 4.173477 30.553242 0.000000 0.000000 0.000000 7.125000 0.000000 0.000000 20.971679 59.970303 -7.868987
-28.704543 16.622341 -0.899167 162.335412 81.336801 165.807461 0.000000 0.000000 0.000000 -21.525222 -1.485153 -4.819851 1.677042 8.158069 23.195288 1.567708 7.995607 -27.721805 0.271144 3.274660 9.050737 0.000000 0.000000 0.000000 8.406474 7.673942 -6.482014 -1.257951 -7.110002 20.041670 -0.735356 1.472814 -15.765146 -0.002381 -0.278355 0.764730 -6.915163 -0.275701 -4.127818 -0.156591 0.099471 2.613790 3.727203 -0.176547 5.042110 -1.850729 -0.906273 -19.130860 2.420938 0.564379 42.701012 1.914176 0.937325 19.866917 0.000000 0.000000 0.000000 -1.832871 -3.013573 -32.395279 11.598110 -19.197728 1.969264 20.061977 -6.528690 10.531749 0.000000 0.000000 0.000000 -7.125000 0.000000 0.000000 -4.940626 18.809058 -3.098186 0.000000 0.000000 0.000000 -4.891470 -4.073608 18.586259 -12.890370 -21.125118 -2.414440 -12.318742 0.582615 30.504173 0.000000 0.000000 0.000000 7.125000 0.000000 0.000000 21.879940 59.715384 -8.094713
-28.808074 16.628762 -1.067561 158.502065 83.170085 162.094018 0.000000 0.000000 0.000000 -22.414833 -1.700587 -4.657887 1.615456 8.014253 22.757538 1.636142 9.312823 -29.084236 0.360065 3.851132 10.658718 0.000000 0.000000 0.000000 7.614126 8.121613 -7.747684 -1.276397 -7.160029 20.190208 -0.623931 2.394491 -14.295920 -0.000655 -0.166076 0.456387 -7.133424 0.058942 -3.657003 -0.288752 0.523431 2.516731 3.742231 0.046639 4.622543 -1.770571 -0.651259 -19.075434 2.001019 1.158737 42.887338 1.824526 1.117436 19.956306 0.000000 0.000000 0.000000 -1.443049 -3.946618 -32.456757 11.272394 -18.704460 1.862396 19.981735 -7.297374 12.469874 0.000000 0.000000 0.000000 -7.125000 0.000000 0.000000 -5.039580 16.771136 -3.384078 0.000000 0.000000 0.000000 -4.562525 -3.274567 21.210459 -14.106390 -22.885572 -2.870075 -12.024041 -2.192306 31.123336 0.000000 0.000000 0.000000 7.125000 0.000000 0.000000 22.686758 60.214256 -8.684555
-28.889970 16.636187 -1.214961 155.751890 84.251431 159.041886 0.000000 0.000000 0.000000 -23.120024 -2.346078 -4.003069 1.578711 7.927084 22.492758 1.754655 10.291591 -30.545220 0.349888 3.800079 10.515006 0.000000 0.000000 0.000000 7.080296 7.835672 -8.457325 -1.315036 -7.263534 20.498460 -0.589168 2.903380 -13.799270 -0.000083 -0.047396 0.130234 -7.456575 0.132792 -2.908411 -0.370219 0.583041 2.549036 3.835866 0.083084 4.223931 -1.801840 -0.311856 -18.914320 1.897487 1.768658 42.918634 1.906130 1.328418 19.908948 0.000000 0.000000 0.000000 -0.904187 -3.975694 -32.924954 11.683551 -19.328271 1.996382 20.486678 -8.551045 12.673705 0.000000 0.000000 0.000000 -7.125000 0.000000 0.000000 -4.695620 16.510134 -3.178264 0.000000 0.000000 0.000000 -4.210943 -2.874788 23.154916 -14.968373 -24.101682 -3.213245 -10.531670 -4.321083 30.037354 0.000000 0.000000 0.000000 7.125000 0.000000 0.000000 23.361780 58.883271 -8.207988
-28.984924 16.640777 -1.338053 148.862890 85.679798 152.150441 0.000000 0.000000 0.000000 -23.799895 -3.443073 -3.648605 1.569825 7.905915 22.428646 2.010326 11.105219 -32.680514 0.614638 5.013504 13.947930 0.000000 0.000000 0.000000 6.576814 7.872534 -9.656993 -1.388472 -7.455203 21.071257 -0.585921 3.599156 -13.682992 -0.005804 -0.491100 1.349340 -7.996411 0.265136 -2.514294 -0.353718 0.753546 2.606098 4.162226 0.158159 4.037224 -1.697405 0.088353 -19.087221 1.536926 2.499742 42.850757 1.860023 1.559631 19.899771 0.000000 0.000000 0.000000 -0.663962 -4.357015 -32.034616 11.862970 -19.598849 2.056088 20.524258 -9.210697 12.744923 0.000000 0.000000 0.000000 -7.125000 0.000000 0.000000 -4.671835 16.431352 -3.170142 0.000000 0.000000 0.000000 -3.792512 -2.636785 24.122230 -16.041940 -25.577158 -3.664235 -9.577112 -4.611568 30.601205 0.000000 0.000000 0.000000 7.125000 0.000000 0.000000 24.786356 59.178172 -8.926128
-28.984814 16.624444 -1.424060 154.668952 86.032232 157.390970 0.000000 0.000000 0.000000 -23.397309 -2.252551 -3.366256 1.575765 7.920116 22.471651 2.002877 10.525753 -32.233310 0.502934 4.546178 12.618630 0.000000 0.000000 0.000000 7.149023 6.211839 -9.920540 -1.491811 -7.715761 21.853983 -0.714066 3.846145 -15.125500 -0.000200 0.006626 -0.018117 -8.204031 -0.062833 -2.881439 -0.219741 0.380940 3.018787 4.401193 -0.073908 4.731709 -1.505172 0.341667 -18.803098 1.186998 2.941139 42.653136 1.727102 1.706234 19.687073 0.000000 0.000000 0.000000 -0.028890 -4.538010 -31.965856 11.910771 -19.670775 2.072212 21.743251 -8.346968 11.081829 0.000000 0.000000 0.000000 -7.125000 0.000000 0.000000 -3.767310 18.087835 -2.416790 0.000000 0.000000 0.000000 -3.089408 -2.593198 24.325679 -16.759591 -26.539707 -3.979332 -8.224745 -5.154661 29.670727 0.000000 0.000000 0.000000 7.125000 0.000000 0.000000 25.413692 58.045454 -8.469106
-29.024811 16.628869 -1.493871 149.902204 87.216745 152.516962 0.000000 0.000000 0.000000 -23.574747 -2.644194 -3.099223 1.565066 7.894459 22.393867 2.054022 11.506554 -33.221079 0.578572 4.870889 13.540754 0.000000 0.000000 0.000000 7.368784 6.110565 -10.594063 -1.622865 -8.031679 22.810505 -0.807949 3.232060 -16.198469 -0.007030 -0.526740 1.447452 -8.374938 -0.018645 -2.992353 -0.243334 0.462999 3.051830 4.478902 -0.043096 4.819779 -1.324415 0.626025 -18.814717 1.116305 3.336703 42.659306 1.741668 1.870876 19.690212 0.000000 0.000000 0.000000 0.384036 -4.934094 -29.758939 11.430094 -18.944266 1.913420 21.717854 -5.567551 10.955723 0.000000 0.000000 0.000000 -7.125000 0.000000 0.000000 -3.781246 18.224485 -2.414374 0.000000 0.000000 0.000000 -2.415382 -2.531264 24.614068 -17.216723 -27.142502 -4.185765 -7.961284 -5.321096 29.415116 0.000000 0.000000 0.000000 7.125000 0.000000 0.000000 25.480260 57.760197 -8.315223
